# MagicaVoxel @ Ephtracy

# group
o 

# material
mtllib mastil.mtl
usemtl palette

# normals
vn -1 0 0
vn 1 0 0
vn 0 0 1
vn 0 0 -1
vn 0 -1 0
vn 0 1 0

# texcoords
vt 0.0996094 0.5
vt 0.126953 0.5
vt 0.533203 0.5
vt 0.537109 0.5
vt 0.974609 0.5

# verts
v 0 2 -0.3
v 0 2 -1.3
v 0 2.3 -0.3
v 0 2.3 -1.3
v 0.2 2 0
v 0.2 2 -0.3
v 0.2 2 -1.3
v 0.2 2 -1.6
v 0.2 2.3 0
v 0.2 2.3 -0.3
v 0.2 2.3 -1.3
v 0.2 2.3 -1.6
v 0.2 2.5 -0.3
v 0.2 2.5 -1.3
v 0.5 2.5 -0.7
v 0.5 2.5 -0.9
v 0.5 9.5 -0.7
v 0.5 9.5 -0.9
v 0.5 9.7 -0.7
v 0.5 9.7 -0.9
v 0.6 9.7 -0.7
v 0.6 9.7 -0.9
v 0.6 9.9 -0.7
v 0.6 9.9 -0.9
v 0.7 2.5 -0.5
v 0.7 2.5 -0.7
v 0.7 2.5 -0.9
v 0.7 2.5 -1.1
v 0.7 9.5 -0.5
v 0.7 9.5 -0.7
v 0.7 9.5 -0.9
v 0.7 9.5 -1.1
v 0.7 9.7 -0.5
v 0.7 9.7 -0.6
v 0.7 9.7 -1
v 0.7 9.7 -1.1
v 0.7 9.9 -0.6
v 0.7 9.9 -0.7
v 0.7 9.9 -0.9
v 0.7 9.9 -1
v 0.7 10.1 -0.7
v 0.7 10.1 -0.9
v 0.9 2.5 -0.5
v 0.9 2.5 -1.1
v 0.9 9.5 -0.5
v 0.9 9.5 -1.1
v 0.9 9.7 -0.5
v 0.9 9.7 -0.6
v 0.9 9.7 -1
v 0.9 9.7 -1.1
v 0.9 9.9 -0.6
v 0.9 9.9 -0.7
v 0.9 9.9 -0.9
v 0.9 9.9 -1
v 0.9 10.1 -0.7
v 0.9 10.1 -0.9
v 1.3 2 0
v 1.3 2 -0.3
v 1.3 2 -1.3
v 1.3 2 -1.6
v 1.3 2.3 0
v 1.3 2.3 -0.3
v 1.3 2.3 -1.3
v 1.3 2.3 -1.6
v 1.3 2.5 -0.3
v 1.3 2.5 -1.3
v 1.6 2 -0.3
v 1.6 2 -1.3
v 1.6 2.3 -0.3
v 1.6 2.3 -1.3
v 0.2 2 0
v 0.2 2.3 0
v 1.3 2 0
v 1.3 2.3 0
v 0 2 -0.3
v 0 2.3 -0.3
v 0.2 2 -0.3
v 0.2 2.3 -0.3
v 0.2 2.5 -0.3
v 1.3 2 -0.3
v 1.3 2.3 -0.3
v 1.3 2.5 -0.3
v 1.6 2 -0.3
v 1.6 2.3 -0.3
v 0.7 2.5 -0.5
v 0.7 9.5 -0.5
v 0.7 9.7 -0.5
v 0.9 2.5 -0.5
v 0.9 9.5 -0.5
v 0.9 9.7 -0.5
v 0.7 9.7 -0.6
v 0.7 9.9 -0.6
v 0.9 9.7 -0.6
v 0.9 9.9 -0.6
v 0.5 2.5 -0.7
v 0.5 9.5 -0.7
v 0.5 9.7 -0.7
v 0.6 9.7 -0.7
v 0.6 9.9 -0.7
v 0.7 2.5 -0.7
v 0.7 9.5 -0.7
v 0.7 9.9 -0.7
v 0.7 10.1 -0.7
v 0.9 9.9 -0.7
v 0.9 10.1 -0.7
v 0.5 2.5 -0.9
v 0.5 9.5 -0.9
v 0.5 9.7 -0.9
v 0.6 9.7 -0.9
v 0.6 9.9 -0.9
v 0.7 2.5 -0.9
v 0.7 9.5 -0.9
v 0.7 9.9 -0.9
v 0.7 10.1 -0.9
v 0.9 9.9 -0.9
v 0.9 10.1 -0.9
v 0.7 9.7 -1
v 0.7 9.9 -1
v 0.9 9.7 -1
v 0.9 9.9 -1
v 0.7 2.5 -1.1
v 0.7 9.5 -1.1
v 0.7 9.7 -1.1
v 0.9 2.5 -1.1
v 0.9 9.5 -1.1
v 0.9 9.7 -1.1
v 0 2 -1.3
v 0 2.3 -1.3
v 0.2 2 -1.3
v 0.2 2.3 -1.3
v 0.2 2.5 -1.3
v 1.3 2 -1.3
v 1.3 2.3 -1.3
v 1.3 2.5 -1.3
v 1.6 2 -1.3
v 1.6 2.3 -1.3
v 0.2 2 -1.6
v 0.2 2.3 -1.6
v 1.3 2 -1.6
v 1.3 2.3 -1.6
v 0.2 2 0
v 1.3 2 0
v 0.3 2 -0.1
v 1.2 2 -0.1
v 0 2 -0.3
v 0.2 2 -0.3
v 0.3 2 -0.3
v 1.2 2 -0.3
v 1.3 2 -0.3
v 1.6 2 -0.3
v 0.1 2 -0.4
v 0.2 2 -0.4
v 1.3 2 -0.4
v 1.5 2 -0.4
v 0.1 2 -1.2
v 0.2 2 -1.2
v 1.3 2 -1.2
v 1.5 2 -1.2
v 0 2 -1.3
v 0.2 2 -1.3
v 0.3 2 -1.3
v 1.2 2 -1.3
v 1.3 2 -1.3
v 1.6 2 -1.3
v 0.3 2 -1.5
v 1.2 2 -1.5
v 0.2 2 -1.6
v 1.3 2 -1.6
v 0.2 2.3 0
v 1.3 2.3 0
v 0 2.3 -0.3
v 0.2 2.3 -0.3
v 1.3 2.3 -0.3
v 1.6 2.3 -0.3
v 0 2.3 -1.3
v 0.2 2.3 -1.3
v 1.3 2.3 -1.3
v 1.6 2.3 -1.3
v 0.2 2.3 -1.6
v 1.3 2.3 -1.6
v 0.2 2.5 -0.3
v 1.3 2.5 -0.3
v 0.7 2.5 -0.5
v 0.9 2.5 -0.5
v 0.5 2.5 -0.7
v 0.7 2.5 -0.7
v 0.5 2.5 -0.9
v 0.7 2.5 -0.9
v 0.7 2.5 -1.1
v 0.9 2.5 -1.1
v 0.2 2.5 -1.3
v 1.3 2.5 -1.3
v 0.7 9.7 -0.5
v 0.9 9.7 -0.5
v 0.7 9.7 -0.6
v 0.9 9.7 -0.6
v 0.5 9.7 -0.7
v 0.6 9.7 -0.7
v 0.5 9.7 -0.9
v 0.6 9.7 -0.9
v 0.7 9.7 -1
v 0.9 9.7 -1
v 0.7 9.7 -1.1
v 0.9 9.7 -1.1
v 0.7 9.9 -0.6
v 0.9 9.9 -0.6
v 0.6 9.9 -0.7
v 0.7 9.9 -0.7
v 0.9 9.9 -0.7
v 0.6 9.9 -0.9
v 0.7 9.9 -0.9
v 0.9 9.9 -0.9
v 0.7 9.9 -1
v 0.9 9.9 -1
v 0.7 10.1 -0.7
v 0.9 10.1 -0.7
v 0.7 10.1 -0.9
v 0.9 10.1 -0.9

# faces
f 3/2/1 2/2/1 1/2/1
f 4/2/1 2/2/1 3/2/1
f 9/2/1 6/2/1 5/2/1
f 10/2/1 6/2/1 9/2/1
f 11/2/1 8/2/1 7/2/1
f 12/2/1 8/2/1 11/2/1
f 13/2/1 11/2/1 10/2/1
f 14/2/1 11/2/1 13/2/1
f 17/1/1 16/1/1 15/1/1
f 18/1/1 16/1/1 17/1/1
f 19/5/1 18/5/1 17/5/1
f 20/5/1 18/5/1 19/5/1
f 23/5/1 22/5/1 21/5/1
f 24/5/1 22/5/1 23/5/1
f 29/2/1 26/2/1 25/2/1
f 30/2/1 26/2/1 29/2/1
f 31/2/1 28/2/1 27/2/1
f 32/2/1 28/2/1 31/2/1
f 33/5/1 30/5/1 29/5/1
f 34/5/1 30/5/1 33/5/1
f 35/5/1 32/5/1 31/5/1
f 36/5/1 32/5/1 35/5/1
f 37/5/1 30/5/1 34/5/1
f 38/5/1 30/5/1 37/5/1
f 39/5/1 35/5/1 31/5/1
f 40/5/1 35/5/1 39/5/1
f 41/5/1 39/5/1 38/5/1
f 42/5/1 39/5/1 41/5/1
f 43/2/2 44/2/2 45/2/2
f 45/2/2 44/2/2 46/2/2
f 45/5/2 46/5/2 47/5/2
f 47/5/2 46/5/2 48/5/2
f 48/5/2 46/5/2 49/5/2
f 49/5/2 46/5/2 50/5/2
f 48/5/2 49/5/2 51/5/2
f 51/5/2 49/5/2 52/5/2
f 52/5/2 49/5/2 53/5/2
f 53/5/2 49/5/2 54/5/2
f 52/5/2 53/5/2 55/5/2
f 55/5/2 53/5/2 56/5/2
f 57/2/2 58/2/2 61/2/2
f 61/2/2 58/2/2 62/2/2
f 59/2/2 60/2/2 63/2/2
f 63/2/2 60/2/2 64/2/2
f 62/2/2 63/2/2 65/2/2
f 65/2/2 63/2/2 66/2/2
f 67/2/2 68/2/2 69/2/2
f 69/2/2 68/2/2 70/2/2
f 73/2/3 72/2/3 71/2/3
f 74/2/3 72/2/3 73/2/3
f 77/2/3 76/2/3 75/2/3
f 78/2/3 76/2/3 77/2/3
f 81/2/3 79/2/3 78/2/3
f 82/2/3 79/2/3 81/2/3
f 83/2/3 81/2/3 80/2/3
f 84/2/3 81/2/3 83/2/3
f 88/2/3 86/2/3 85/2/3
f 89/5/3 87/5/3 86/5/3
f 89/2/3 86/2/3 88/2/3
f 90/5/3 87/5/3 89/5/3
f 93/5/3 92/5/3 91/5/3
f 94/5/3 92/5/3 93/5/3
f 98/5/3 97/5/3 96/5/3
f 100/1/3 96/1/3 95/1/3
f 101/5/3 99/5/3 98/5/3
f 101/1/3 96/1/3 100/1/3
f 101/5/3 98/5/3 96/5/3
f 102/5/3 99/5/3 101/5/3
f 104/5/3 103/5/3 102/5/3
f 105/5/3 103/5/3 104/5/3
f 107/5/4 108/5/4 109/5/4
f 106/1/4 107/1/4 111/1/4
f 109/5/4 110/5/4 112/5/4
f 111/1/4 107/1/4 112/1/4
f 107/5/4 109/5/4 112/5/4
f 112/5/4 110/5/4 113/5/4
f 113/5/4 114/5/4 115/5/4
f 115/5/4 114/5/4 116/5/4
f 117/5/4 118/5/4 119/5/4
f 119/5/4 118/5/4 120/5/4
f 121/2/4 122/2/4 124/2/4
f 122/5/4 123/5/4 125/5/4
f 124/2/4 122/2/4 125/2/4
f 125/5/4 123/5/4 126/5/4
f 127/2/4 128/2/4 129/2/4
f 129/2/4 128/2/4 130/2/4
f 130/2/4 131/2/4 133/2/4
f 133/2/4 131/2/4 134/2/4
f 132/2/4 133/2/4 135/2/4
f 135/2/4 133/2/4 136/2/4
f 137/2/4 138/2/4 139/2/4
f 139/2/4 138/2/4 140/2/4
f 143/2/5 142/2/5 141/2/5
f 144/2/5 142/2/5 143/2/5
f 146/2/5 143/2/5 141/2/5
f 147/4/5 144/4/5 143/4/5
f 147/2/5 143/2/5 146/2/5
f 148/2/5 142/2/5 144/2/5
f 148/4/5 144/4/5 147/4/5
f 149/2/5 142/2/5 148/2/5
f 151/2/5 146/2/5 145/2/5
f 152/4/5 147/4/5 146/4/5
f 152/2/5 146/2/5 151/2/5
f 152/4/5 148/4/5 147/4/5
f 152/4/5 149/4/5 148/4/5
f 153/2/5 150/2/5 149/2/5
f 153/4/5 149/4/5 152/4/5
f 154/2/5 150/2/5 153/2/5
f 155/2/5 151/2/5 145/2/5
f 155/4/5 152/4/5 151/4/5
f 155/4/5 154/4/5 153/4/5
f 155/4/5 153/4/5 152/4/5
f 156/4/5 154/4/5 155/4/5
f 157/4/5 154/4/5 156/4/5
f 158/2/5 150/2/5 154/2/5
f 158/4/5 154/4/5 157/4/5
f 159/2/5 155/2/5 145/2/5
f 159/2/5 156/2/5 155/2/5
f 160/4/5 157/4/5 156/4/5
f 160/2/5 156/2/5 159/2/5
f 161/4/5 157/4/5 160/4/5
f 162/4/5 157/4/5 161/4/5
f 163/2/5 158/2/5 157/2/5
f 163/4/5 157/4/5 162/4/5
f 164/2/5 150/2/5 158/2/5
f 164/2/5 158/2/5 163/2/5
f 165/4/5 162/4/5 161/4/5
f 165/2/5 161/2/5 160/2/5
f 166/2/5 163/2/5 162/2/5
f 166/4/5 162/4/5 165/4/5
f 167/2/5 165/2/5 160/2/5
f 167/2/5 166/2/5 165/2/5
f 168/2/5 163/2/5 166/2/5
f 168/2/5 166/2/5 167/2/5
f 169/2/6 170/2/6 172/2/6
f 172/2/6 170/2/6 173/2/6
f 171/2/6 172/2/6 175/2/6
f 175/2/6 172/2/6 176/2/6
f 173/2/6 174/2/6 177/2/6
f 177/2/6 174/2/6 178/2/6
f 176/2/6 177/2/6 179/2/6
f 179/2/6 177/2/6 180/2/6
f 181/2/6 182/2/6 183/2/6
f 183/2/6 182/2/6 184/2/6
f 181/2/6 183/2/6 185/2/6
f 185/2/6 183/2/6 186/2/6
f 181/2/6 185/2/6 187/2/6
f 187/2/6 188/2/6 189/2/6
f 184/2/6 182/2/6 190/2/6
f 187/2/6 189/2/6 191/2/6
f 189/2/6 190/2/6 191/2/6
f 181/2/6 187/2/6 191/2/6
f 190/2/6 182/2/6 192/2/6
f 191/2/6 190/2/6 192/2/6
f 193/5/6 194/5/6 195/5/6
f 195/5/6 194/5/6 196/5/6
f 197/5/6 198/5/6 199/5/6
f 199/5/6 198/5/6 200/5/6
f 201/5/6 202/5/6 203/5/6
f 203/5/6 202/5/6 204/5/6
f 205/5/6 206/5/6 208/5/6
f 208/5/6 206/5/6 209/5/6
f 207/5/6 208/5/6 210/5/6
f 210/5/6 208/5/6 211/5/6
f 211/5/6 212/5/6 213/5/6
f 213/5/6 212/5/6 214/5/6
f 215/5/6 216/5/6 217/5/6
f 217/5/6 216/5/6 218/5/6
